<?xml version="1.0" encoding="utf-8"?>
<!-- Generator: Adobe Illustrator 23.0.3, SVG Export Plug-In . SVG Version: 6.00 Build 0)  -->
<svg version="1.1" id="Layer_1" xmlns="http://www.w3.org/2000/svg" xmlns:xlink="http://www.w3.org/1999/xlink" x="0px" y="0px"
	 viewBox="0 0 17.85 22.5" style="enable-background:new 0 0 17.85 22.5;" xml:space="preserve">
<style type="text/css">
	.st0{fill:#BDE6F3;stroke:#005191;stroke-miterlimit:10;}
</style>
<g>
	<path class="st0" d="M15.47,7.76H2.38c-1.04,0-1.88-0.84-1.88-1.88v-0.3c0-1.04,0.84-1.88,1.88-1.88h13.09
		c1.04,0,1.88,0.84,1.88,1.88v0.3C17.35,6.92,16.51,7.76,15.47,7.76z"/>
	<path class="st0" d="M5.73,3.41c0-1.6,1.43-2.91,3.2-2.91s3.2,1.3,3.2,2.91"/>
	<path class="st0" d="M2.1,21.42"/>
	<path class="st0" d="M15.46,21.42"/>
	<polyline class="st0" points="2.1,8.05 2.1,22 15.46,22 15.46,8.05 	"/>
	<line class="st0" x1="5.58" y1="10.38" x2="5.58" y2="18.51"/>
	<line class="st0" x1="8.49" y1="10.38" x2="8.49" y2="18.51"/>
	<line class="st0" x1="11.4" y1="10.38" x2="11.4" y2="18.51"/>
</g>
</svg>
